<svg width="15" height="13" viewBox="0 0 15 13" fill="none" xmlns="http://www.w3.org/2000/svg">
<path fill-rule="evenodd" clip-rule="evenodd" d="M1.04364 6.1055C4.93582 4.40974 7.53122 3.29179 8.82983 2.75166C12.5376 1.20945 13.3081 0.941558 13.8103 0.932712C13.9207 0.930766 14.1677 0.958138 14.3276 1.08794C14.4627 1.19754 14.4999 1.34559 14.5176 1.44951C14.5354 1.55342 14.5576 1.79014 14.54 1.9751C14.339 4.08626 13.4696 9.20948 13.0273 11.574C12.8402 12.5745 12.4717 12.91 12.1149 12.9428C11.3395 13.0142 10.7508 12.4304 9.99984 11.9382C8.82475 11.1679 8.1609 10.6884 7.02027 9.93673C5.70208 9.06807 6.55661 8.59063 7.30784 7.81037C7.50445 7.60617 10.9206 4.49892 10.9867 4.21705C10.995 4.18179 11.0027 4.05039 10.9246 3.981C10.8465 3.91161 10.7313 3.93534 10.6482 3.95421C10.5303 3.98096 8.65308 5.22173 5.01649 7.67652C4.48365 8.04242 4.00102 8.22069 3.56859 8.21135C3.09188 8.20105 2.17488 7.94181 1.49319 7.72021C0.657059 7.44842 -0.00747866 7.30473 0.0503876 6.84314C0.080528 6.60272 0.411613 6.35684 1.04364 6.1055Z" fill="#008080"/>
</svg>
